HIERARCHY
ROOT Hips
{
	OFFSET 0.00000 0.00000 0.00000
	CHANNELS 6 Xposition Yposition Zposition Yrotation Zrotation Xrotation 
	JOINT Lumbar
	{
		OFFSET 0 0 0
		CHANNELS 3 Zrotation Xrotation Yrotation
		JOINT Neck
		{
			OFFSET 0.00 0.2701 0.00
			CHANNELS 3 Zrotation Xrotation Yrotation
			End Site
			{
				OFFSET 0.00 0.1379 0.00
			}
		}
		JOINT RightShoulder
		{
			OFFSET 0.0119 0.2289 0.1181
			CHANNELS 3 Zrotation Xrotation Yrotation
			JOINT RightElbow
			{
				OFFSET 0.00 -0.1475 0.00
				CHANNELS 2 Zrotation Yrotation
				JOINT RightWrist
				{
					OFFSET 0.00 -0.1605 0.00
					CHANNELS 2 Zrotation Xrotation
					End Site
					{
						OFFSET 0.0040 -0.1068 0.0006
					}
				}
			}
		}
		JOINT LeftShoulder
		{
			OFFSET 0.0119 0.2289 -0.1181
			CHANNELS 3 Zrotation Xrotation Yrotation
			JOINT LeftElbow
			{
				OFFSET 0.00 -0.1475 0.00
				CHANNELS 2 Zrotation Yrotation
				JOINT LeftWrist
				{
					OFFSET 0.00 -0.1605 0.00
					CHANNELS 2 Zrotation Xrotation
					End Site
					{
						OFFSET 0.0040 -0.1068 -0.0006
					}
				}
			}
		}
	}
	JOINT RightHip
	{
		OFFSET 0.0316 -0.0424 0.0458
		CHANNELS 3 Zrotation Xrotation Yrotation
		JOINT RightKnee
		{
			OFFSET 0.00 -0.2438 0.00
			CHANNELS 1 Zrotation
			JOINT RightAnkle
			{
				OFFSET 0.00 -0.2449 0.00
				CHANNELS 3 Zrotation Xrotation Yrotation
				End Site
				{
					OFFSET 0.1237 -0.0542 0.0051
				}
			}
		}
	}
	JOINT LeftHip
	{
		OFFSET 0.0316 -0.0424 -0.0458
		CHANNELS 3 Zrotation Xrotation Yrotation
		JOINT LeftKnee
		{
			OFFSET 0.00 -0.2438 0.00
			CHANNELS 1 Zrotation
			JOINT LeftAnkle
			{
				OFFSET 0.00 -0.2449 0.00
				CHANNELS 3 Zrotation Xrotation Yrotation
				End Site
				{
					OFFSET 0.1237 -0.0542 -0.0051
				}
			}
		}
	}
}
MOTION
Frames: 10
Frame Time: 0.02
-0.547 -0.12233 0.74403 -185.23988 -46.14095 -11.76253 38.07309 0.6815 3.35492 4.56053 11.13417 -2.11994 65.54189 -11.01246 18.54938 123.45749 116.57962 -55.75011 -6.69001 -61.77568 59.21781 -37.35889 112.401 -133.26109 -50.17776 10.15436 39.90817 -7.58452 -13.12524 -22.41931 -6.87705 -1.74119 -3.10294 30.6873 -1.74333 8.38405 -11.39288 -6.3986 2.04055 3.23927
-0.55247 -0.12333 0.74438 -185.32105 -46.13208 -11.90252 37.96104 0.91526 2.95936 4.54032 10.54964 -2.11994 67.07607 -10.95447 18.81639 122.56589 114.65857 -53.25022 -6.53137 -61.6541 59.4354 -37.49028 112.27007 -133.13398 -49.88586 10.1123 41.93374 -7.53666 -12.88297 -21.96517 -6.84688 -1.68541 -3.07541 29.00304 -1.81421 2.82384 -9.29124 -5.07264 7.95906 6.12353
-0.55802 -0.12441 0.74461 -185.22051 -46.16119 -11.91681 37.89093 1.11722 2.55352 4.50358 9.86015 -2.11994 68.56637 -10.94257 19.19953 121.64878 111.93988 -49.92457 -6.29484 -61.14353 59.69391 -37.94724 112.05234 -131.81157 -48.66097 9.89528 43.95029 -7.52971 -12.49331 -21.55661 -6.83342 -1.64604 -3.05669 27.23206 -1.93183 -3.93565 -6.99926 -3.36459 15.20857 9.65964
-0.56356 -0.12548 0.74489 -185.19071 -46.17547 -11.9799 37.80705 1.33223 2.15299 4.47755 9.21483 -2.11994 70.0807 -10.92118 19.52505 120.74328 109.701 -47.1229 -6.10322 -60.80446 59.91729 -38.25767 111.86154 -130.99235 -47.82121 9.75678 45.96738 -7.51238 -12.16028 -21.15861 -6.80851 -1.6011 -3.03464 25.52974 -2.02397 -9.65956 -4.85643 -1.83773 21.2473 12.60857
-0.56899 -0.12645 0.74519 -185.21312 -46.17933 -12.07845 37.70146 1.55361 1.75079 4.43362 8.58172 -2.11994 71.57747 -10.84388 19.87268 119.83622 106.97906 -43.71183 -5.87229 -60.49447 60.20694 -38.55412 111.72371 -130.34406 -47.14808 9.62265 48.0066 -7.46146 -11.86376 -20.6208 -6.79929 -1.5422 -3.00688 23.70488 -2.1345 -17.40636 -2.44857 -0.27295 29.78034 16.75558
-0.57468 -0.12764 0.74543 -185.08206 -46.21376 -12.07251 37.65074 1.75371 1.35013 4.42548 7.89981 -2.11994 73.10302 -10.89844 20.20293 118.92512 105.05615 -41.34974 -5.70351 -60.03127 60.36932 -38.95731 111.45607 -129.08403 -45.92487 9.44201 49.98932 -7.48883 -11.4574 -20.38668 -6.76223 -1.51877 -2.99432 22.1132 -2.21755 -21.28863 -0.54688 1.29686 33.51719 18.60141
-0.58105 -0.12937 0.74554 -184.58057 -46.32648 -11.81711 37.74284 1.90629 0.94523 4.51158 7.10244 -2.11994 74.68744 -11.28565 20.4356 118.03123 105.70019 -42.30302 -5.73687 -59.20992 60.17488 -39.61089 110.83667 -126.05201 -43.15845 9.12081 51.88572 -7.73423 -10.80423 -20.99669 -6.63612 -1.58664 -3.01991 21.20082 -2.21382 -13.64339 -0.10082 2.8434 22.96312 13.58951
-0.58771 -0.13132 0.74557 -183.92922 -46.46842 -11.4596 37.88885 2.03787 0.54406 4.63668 6.26125 -2.11994 76.30759 -11.8079 20.65025 117.13054 107.14855 -44.30334 -5.83362 -58.25143 59.8513 -40.35645 110.09238 -122.49841 -39.90661 8.76643 53.71243 -8.05451 -10.04413 -21.90893 -6.48287 -1.6907 -3.06108 20.52383 -2.18035 -2.17418 -0.16902 4.37251 7.67441 6.30441
-0.59426 -0.13318 0.74562 -183.34027 -46.59455 -11.14325 38.00846 2.17682 0.14803 4.74967 5.44442 -2.11994 77.93186 -12.2832 20.88646 116.21895 108.11656 -45.67836 -5.89353 -57.37506 59.58354 -41.03737 109.41423 -119.44015 -37.04876 8.46504 55.52727 -8.33314 -9.3195 -22.67321 -6.34735 -1.78105 -3.09677 19.72939 -2.16049 7.1786 0.00573 5.87082 -4.97912 0.28378
-0.60068 -0.13496 0.74577 -182.7684 -46.73144 -10.84392 38.13553 2.32397 -0.27741 4.83703 4.60444 -2.11994 79.46968 -12.70181 21.07018 115.3654 109.52844 -47.64267 -5.98352 -56.40448 59.32655 -41.82263 108.69236 -115.3005 -33.45815 8.00559 57.52747 -8.64661 -8.64061 -23.48381 -6.18973 -1.86136 -3.12647 18.97478 -2.14316 18.0967 0.14898 7.54041 -19.64348 -6.69598
